<svg width="27" height="28" viewBox="0 0 27 28" fill="none" xmlns="http://www.w3.org/2000/svg">
<circle cx="13.5838" cy="14.0125" r="12.506" stroke="black" stroke-width="1.46938"/>
<path d="M13.1819 18.0938C11.458 18.8416 10.6501 19.5361 9.81152 20.7096L10.3371 23.7539L10.5 25.5C12.4937 23.6787 13.5525 23.3114 14.3641 23.2751C14.9658 21.398 14.238 19.9937 13.1819 18.0938Z" stroke="black" stroke-width="0.811813"/>
<path d="M3.49837 16.4346C3.4748 18.3871 3.24715 17.5572 3.77535 20.5C4.23578 23.0652 6.91817 25.4688 9.56038 26.2343C9.94933 26.3469 10.3371 26.0309 10.7171 26.0679C10.7127 25.7657 10.6919 25.263 10.6901 25.1876C10.455 20.3226 8.78837 17.9424 3.49837 16.4346Z" stroke="black" stroke-width="0.811813"/>
<path d="M13.9112 26.0175C12.7794 26.4451 10.3145 26.1181 10.3145 26.1181C11.8354 23.8601 13.4473 22.8868 16.0995 23.5525C16.0995 23.5525 15.0431 25.5899 13.9112 26.0175Z" stroke="black" stroke-width="0.811813"/>
<g clip-path="url(#clip0_278_915)">
<path d="M9.46145 14.8846C10.051 14.8846 10.5282 14.66 10.9211 14.1828L11.6791 14.997C11.0615 15.6988 10.3597 16.0358 9.51757 16.0358C8.67543 16.0358 8.00167 15.7831 7.46835 15.2496C6.93504 14.7162 6.6543 14.0424 6.6543 13.2282C6.6543 12.414 6.93501 11.7402 7.46835 11.2068C8.0017 10.6734 8.67543 10.3926 9.46145 10.3926C10.3317 10.3926 11.0896 10.7295 11.6791 11.4314L10.9211 12.3018C10.5281 11.8245 10.079 11.5718 9.51757 11.5718C9.06844 11.5718 8.67543 11.7122 8.3666 12.021C8.05778 12.3299 7.88937 12.7229 7.88937 13.2283C7.88937 13.7337 8.02968 14.1548 8.33849 14.4637C8.64742 14.7162 9.01233 14.8847 9.46145 14.8847V14.8846Z" fill="black"/>
<path d="M17.0125 15.2223C16.4792 15.7557 15.8054 16.0365 14.9914 16.0365C14.1774 16.0365 13.5317 15.7557 12.9703 15.2223C12.437 14.6889 12.1562 14.015 12.1562 13.2008C12.1562 12.3867 12.437 11.7128 12.9703 11.1794C13.5036 10.646 14.1774 10.3652 14.9914 10.3652C15.8054 10.3652 16.4511 10.646 17.0125 11.1794C17.5458 11.7128 17.8266 12.3867 17.8266 13.2008C17.8266 14.015 17.574 14.6608 17.0125 15.2223ZM16.6195 13.2008C16.6195 12.7235 16.4792 12.3025 16.1704 11.9655C15.8616 11.6286 15.4966 11.46 15.0475 11.46C14.5984 11.46 14.2335 11.6285 13.9247 11.9655C13.6158 12.3023 13.4755 12.7235 13.4755 13.2008C13.4755 13.6782 13.6158 14.0992 13.9247 14.4362C14.2335 14.7731 14.5984 14.9416 15.0475 14.9416C15.4966 14.9416 15.8616 14.7732 16.1704 14.4362C16.4511 14.0992 16.6195 13.6782 16.6195 13.2008Z" fill="black"/>
<path d="M19.8444 10.7416C19.9326 10.6094 19.9766 10.4772 19.9766 10.3449C19.9766 10.2126 19.9326 10.1245 19.8444 10.0363C19.7563 9.94814 19.6681 9.9041 19.5359 9.9041C19.2935 9.9041 19.0732 10.0804 18.8749 10.411L18.2139 10.0142C18.3902 9.74982 18.5664 9.52944 18.7868 9.39714C18.985 9.26492 19.2495 9.17676 19.58 9.17676C19.8885 9.17676 20.1749 9.28691 20.4173 9.4853C20.6597 9.68362 20.7699 9.97011 20.7699 10.3228C20.7699 10.5211 20.7258 10.6975 20.6156 10.8737C20.5275 11.05 20.3292 11.2704 20.0868 11.5569L19.4257 12.2621H20.88V13.0114L18.28 13.0115V12.3944L19.3597 11.2704C19.6021 11.0501 19.7563 10.8738 19.8444 10.7416L19.8444 10.7416Z" fill="black"/>
</g>
<defs>
<clipPath id="clip0_278_915">
<rect width="14.8902" height="7.69661" fill="white" transform="translate(6 8.32129)"/>
</clipPath>
</defs>
</svg>
