<svg width="27" height="20" viewBox="0 0 27 20" fill="none" xmlns="http://www.w3.org/2000/svg">
<path d="M25.9702 18.727H21.8388V17.0175C24.3817 16.7347 26.3705 14.4848 26.3705 11.7536C26.3705 9.35171 24.4665 0.153535 21.3011 0.153535C20.2136 0.153535 19.1908 1.22583 18.257 3.33211C18.1317 3.61487 18.249 3.94841 18.5197 4.07931C18.7905 4.21021 19.11 4.08773 19.2353 3.80497C19.9468 2.20087 20.6987 1.27655 21.3012 1.27655C23.1204 1.27655 25.2913 8.79441 25.2913 11.7496C25.2913 14.046 23.5004 15.916 21.3012 15.916C20.3067 15.916 19.3526 15.5235 18.6087 14.8059C18.3905 14.5949 18.0469 14.6117 17.8486 14.8396C17.6465 15.0675 17.6587 15.4222 17.8809 15.6333C18.6894 16.4101 19.696 16.887 20.7674 17.0095V18.7233L13.9717 18.7231V15.8821C17.2866 15.5951 19.9021 12.6908 19.9021 9.15781C19.9021 5.43465 16.9994 2.40362 13.4336 2.40362C9.86784 2.40362 6.96521 5.43449 6.96521 9.15781C6.96521 12.6909 9.5807 15.5951 12.8956 15.8821V18.7231H6.1041V17.0093C7.17133 16.8868 8.18189 16.4142 8.99058 15.6331C9.20883 15.422 9.22104 15.0674 9.02285 14.8394C8.82074 14.6115 8.48108 14.5988 8.26278 14.8057C7.51886 15.5192 6.56481 15.9158 5.57034 15.9158C3.37111 15.9158 1.58019 14.0458 1.58019 11.7494C1.58019 8.79022 3.75501 1.27633 5.57034 1.27633C6.17275 1.27633 6.92451 2.19656 7.63617 3.80476C7.76154 4.08752 8.08094 4.20999 8.35175 4.07909C8.62255 3.94819 8.73984 3.61467 8.61448 3.33189C7.68065 1.22125 6.6579 0.15332 5.57039 0.15332C2.40503 0.15332 0.500989 9.35116 0.500989 11.7533C0.500989 14.4802 2.49008 16.7343 5.0327 17.0173V18.7268L1.03471 18.727C0.735576 18.727 0.49707 18.9804 0.49707 19.2884C0.49707 19.5966 0.739728 19.8498 1.03471 19.8498H25.9694C26.2686 19.8498 26.5071 19.5964 26.5071 19.2884C26.5071 18.9804 26.2685 18.727 25.9694 18.727H25.9702ZM8.04148 9.15756C8.04148 6.05502 10.459 3.53091 13.4301 3.53091C16.4012 3.53091 18.8229 6.05519 18.8229 9.15756C18.8229 12.0703 16.6925 14.472 13.9717 14.7593V13.894L15.9689 11.8086C16.1791 11.5892 16.1791 11.2345 15.9689 11.0109C15.7587 10.7871 15.419 10.7914 15.2049 11.0109L13.9678 12.3026V11.0785L15.965 8.9931C16.1751 8.77363 16.1751 8.41893 15.965 8.19536C15.7548 7.97589 15.4151 7.97589 15.201 8.19536L13.9639 9.48708V6.90789C13.9639 6.59554 13.7212 6.3465 13.4263 6.3465C13.1311 6.3465 12.8886 6.59988 12.8886 6.90789V9.48708L11.6515 8.19536C11.4414 7.97589 11.1017 7.97589 10.8876 8.19536C10.6774 8.41483 10.6774 8.76953 10.8876 8.9931L12.8847 11.0785V12.3026L11.6476 11.0109C11.4374 10.7914 11.0978 10.7914 10.8836 11.0109C10.6735 11.2304 10.6735 11.5851 10.8836 11.8086L12.8808 13.894V14.7593C10.1759 14.4722 8.04143 12.0704 8.04143 9.15756H8.04148Z" fill="#05DF72"/>
</svg>
