<svg width="37" height="24" viewBox="0 0 37 24" fill="none" xmlns="http://www.w3.org/2000/svg">
<g clip-path="url(#clip0_137_1004)">
<path d="M3.9643 2.03672H33.0357C34.4673 2.03672 35.0003 2.57262 35.3341 3.15682C35.668 3.73795 35.6786 4.33672 35.6786 4.33672V20.4367C35.6786 20.4367 35.668 21.0355 35.3341 21.6166C35.0003 22.2008 34.4673 22.7367 33.0357 22.7367H3.9643C2.53276 22.7367 1.99978 22.2008 1.6659 21.6166C1.33202 21.0355 1.32145 20.4367 1.32145 20.4367V4.33672C1.32145 4.33672 1.33202 3.73795 1.6659 3.15682C1.99978 2.57262 2.53276 2.03672 3.9643 2.03672ZM3.9643 0.886719C2.09228 0.886719 0.97347 1.78525 0.481899 2.64162C-0.0105535 3.49799 1.79152e-05 4.33672 1.79152e-05 4.33672V20.4367C1.79152e-05 20.4367 -0.0105535 21.2755 0.481899 22.1318C0.97347 22.9882 2.09228 23.8867 3.9643 23.8867H33.0357C34.9078 23.8867 36.0266 22.9882 36.5181 22.1318C37.0097 21.2755 37 20.4367 37 20.4367V4.33672C37 4.33672 37.0106 3.49799 36.5181 2.64162C36.0266 1.78525 34.9078 0.886719 33.0357 0.886719H3.9643Z" fill="#05DF72"/>
<path d="M27.0897 11.8116C26.725 11.8116 26.429 12.0692 26.429 12.3866C26.4325 12.704 26.725 12.9616 27.0897 12.9616C27.4544 12.9616 27.7504 12.704 27.7504 12.3866C27.7504 12.0692 27.4544 11.8116 27.0897 11.8116ZM24.7534 10.3534C24.1579 10.874 23.7861 11.5962 23.7861 12.3866C23.7861 13.1771 24.1579 13.8993 24.7534 14.4198C25.0115 14.6414 25.4318 14.6414 25.6899 14.4198C25.948 14.1952 25.948 13.8295 25.6899 13.6049C25.3287 13.2936 25.1084 12.8681 25.1084 12.3859C25.1084 11.9067 25.3287 11.4781 25.6899 11.1669C25.948 10.9422 25.948 10.5773 25.6899 10.3527C25.4309 10.1319 25.0115 10.1319 24.7534 10.3534ZM28.9582 10.1855C28.7829 10.1855 28.6138 10.2453 28.4904 10.3534C28.2323 10.5781 28.2323 10.943 28.4904 11.1676C28.8481 11.4789 29.0718 11.9075 29.0718 12.3866C29.0718 12.8689 28.8481 13.2944 28.4904 13.6056C28.2323 13.8303 28.2323 14.196 28.4904 14.4206C28.7485 14.6452 29.1688 14.6452 29.4269 14.4206C30.0259 13.8993 30.3942 13.1778 30.3942 12.3874C30.3942 11.597 30.0259 10.8748 29.4269 10.3542C29.3027 10.2453 29.1335 10.1855 28.9582 10.1855Z" fill="#05DF72"/>
<path d="M23.352 8.55957C23.1767 8.55957 23.0076 8.61937 22.8842 8.72747C21.8068 9.66127 21.1426 10.9615 21.1426 12.3868C21.1426 13.812 21.8068 15.1123 22.8842 16.0461C23.1423 16.2707 23.5626 16.2707 23.8207 16.0461C24.0788 15.8214 24.0788 15.4588 23.8207 15.2342C22.9802 14.5043 22.464 13.5038 22.464 12.3868C22.464 11.2728 22.9802 10.2692 23.8198 9.5386C24.0779 9.31397 24.0779 8.9521 23.8198 8.72747C23.6956 8.61937 23.5273 8.55957 23.352 8.55957ZM30.826 8.55957C30.6507 8.55957 30.4816 8.61937 30.3617 8.72747C30.1036 8.9521 30.1036 9.31397 30.3617 9.5386C31.1978 10.2692 31.714 11.2728 31.714 12.3868C31.714 13.5038 31.1978 14.5043 30.3617 15.2349C30.1036 15.4596 30.1036 15.8222 30.3617 16.0468C30.6199 16.2715 31.0366 16.2715 31.2947 16.0468C32.3677 15.1123 33.0354 13.812 33.0354 12.3868C33.0354 10.9615 32.3677 9.66127 31.2938 8.72747C31.1705 8.61937 31.0013 8.55957 30.826 8.55957Z" fill="#05DF72"/>
<path d="M8.50488 13.8318H8.33198C8.27252 13.7156 8.38518 13.7392 8.01277 13.5077C7.64036 13.2762 7.55676 12.935 7.34775 12.5702C7.20134 12.1021 7.24521 11.869 7.34775 11.459C8.07591 11.6724 8.19912 11.863 8.38518 12.2114C8.56375 12.6439 8.35874 13.2876 8.42508 13.5077C8.49142 13.7279 8.50488 13.8318 8.50488 13.8318Z" fill="#05DF72"/>
<path d="M7.67944 11.5751L7.90555 11.6793L7.90793 11.6804L7.93999 11.6972L7.98535 11.7256L7.97205 11.714L7.9719 11.7139L7.95875 11.7025L7.90555 11.6446C7.53218 11.1319 7.38759 10.7731 7.13413 10.1283C6.94868 9.82543 6.81052 9.70938 6.54891 9.52639C6.21418 9.27876 5.96089 9.2211 5.43168 9.21387C5.42778 9.64971 5.51416 9.8849 5.80409 10.2903C6.15309 10.6549 6.5449 10.7672 7.28043 10.9501C7.44426 11.2736 7.52938 11.3886 7.67944 11.5751Z" fill="#05DF72"/>
<path d="M12.8803 7.07202C12.8537 7.06045 12.4501 7.64116 12.2818 7.96329V7.56975C12.2818 7.56975 12.734 7.01415 12.7207 6.97943C12.7074 6.9447 12.7062 6.7087 12.7207 6.44698C12.7923 6.29851 12.8729 6.22737 13.0532 6.11131C13.2545 6.00791 13.3593 6.00928 13.5453 6.01871C13.5865 6.25856 13.5694 6.37364 13.5054 6.56273C13.3872 6.86448 12.9069 7.0836 12.8803 7.07202Z" fill="#05DF72"/>
<path d="M12.9734 14.4105V14.8272C12.9734 14.8272 15.9261 14.0517 15.9926 14.0517C16.0591 14.0517 16.3843 13.9764 16.7241 14.1674C16.9983 14.2399 17.192 14.2427 17.5487 14.2369C18.1039 14.2263 18.3787 14.0382 18.8389 13.554C18.5063 13.3742 18.199 13.3396 17.5487 13.334C17.0845 13.4126 16.8431 13.4738 16.4315 13.6003C16.4315 13.6003 16.6443 13.3803 16.8039 13.334C16.9635 13.2877 17.4441 13.1913 17.9477 12.9636C18.3016 12.7509 18.45 12.4246 18.7059 11.8062C18.0046 11.7994 17.7736 11.8431 17.5221 11.9682C17.1533 12.1896 16.9804 12.4136 16.7241 12.9636C16.5238 13.2608 16.3794 13.4117 16.099 13.6697L12.9734 14.4105Z" fill="#05DF72"/>
<path d="M12.3485 8.7736V10.5446V11.4358H11.617V10.7066V8.8199L11.1914 8.29903C11.1914 8.29903 10.9226 8.12954 10.4998 7.91706C10.0123 7.56141 9.87975 7.22175 9.75496 6.50492C10.8015 6.73475 11.1167 6.97188 11.2978 7.54666V7.99808C11.441 8.2716 11.5228 8.35681 11.6702 8.43793V5.48633H12.282V8.43793L12.4283 8.29903C12.4455 7.88974 12.4477 7.65455 12.7209 7.44249C13.0998 7.08972 13.3718 6.99557 13.918 6.93319C13.7133 7.77296 13.4626 8.2074 12.4682 8.61155C12.3992 8.67672 12.3588 8.71341 12.3485 8.7736Z" fill="#05DF72"/>
<path d="M10.8058 14.5497V14.3066C10.8058 14.3066 8.6644 13.8089 8.65111 13.7973C8.65894 13.7574 8.66811 13.7397 8.70432 13.7279L8.72687 13.7249C8.7282 13.7248 8.72955 13.7246 8.73092 13.7244C8.92877 13.6954 9.54354 13.1028 8.94372 12.3389C8.94372 12.3389 8.62451 12.6282 8.5447 12.8019C8.4649 12.9755 8.5447 13.7973 8.5447 13.7973L7.66688 13.7047C7.38347 13.0598 7.26788 12.7208 6.72256 12.5935C6.17725 12.4662 5.80808 12.4723 5.28612 12.5009C5.63657 13.2412 6.01865 13.5236 7.02846 13.7973C6.50085 13.9976 5.63193 14.0983 5.63193 14.0983C6.25837 14.0944 7.02471 13.949 7.66688 13.8552C8.17071 13.9004 8.04088 13.9026 8.5447 13.9478C9.36488 14.0049 9.87453 14.2818 10.8058 14.5497Z" fill="#05DF72"/>
<path d="M13.8914 16.4132L12.9604 17.3392V17.6517C12.9604 17.6517 13.958 16.5753 14.0112 16.4943C14.0431 16.4943 14.224 16.3862 14.3038 16.3322C15.0656 16.4961 15.3915 16.3775 15.7934 15.7998C15.5111 15.7499 15.3554 15.7192 14.9954 15.7535L15.5673 15.2673C15.9852 15.2008 16.1728 15.0684 16.4318 14.677C16.5165 14.4626 16.5088 14.3206 16.485 14.0635C15.6904 14.2354 15.4399 14.4896 15.3944 15.2673L14.0657 16.2628C14.0653 16.2415 14.0643 16.228 14.0643 16.228C14.6228 15.5915 14.6683 15.1739 14.5166 14.376C13.6402 15.0206 13.4211 15.415 13.9313 16.228L13.8914 16.4132Z" fill="#05DF72"/>
<path d="M8.58434 15.7188L8.95674 16.3439L9.15625 16.3902C9.15625 16.3902 8.75724 15.7998 8.71734 15.7188C8.67744 15.6378 8.30037 14.494 7.3208 14.3877C7.37065 14.8782 7.50899 15.1158 8.01242 15.4526L8.58434 15.7188Z" fill="#05DF72"/>
<path d="M12.9732 17.9294V12.8596L17.083 7.61621H14.6224L11.8693 11.135L9.35551 7.61621H6.81514L10.8052 12.8596V17.9294V18.5198H12.9732V17.9294Z" fill="#05DF72"/>
<path d="M9.84781 17.0497L10.832 17.9178V17.6169L9.94091 16.8645C9.30769 16.274 8.83275 16.2082 7.78625 16.5404C8.31915 17.0132 8.66186 17.1464 9.34239 17.1654L9.84781 17.0497Z" fill="#05DF72"/>
<path d="M14.9553 13.7159C14.9686 13.7391 14.9553 13.9474 14.9553 13.9474L15.0218 13.9127V13.7159C15.0218 13.7159 15.3792 13.3692 15.4873 12.8825C15.4316 12.2082 15.2112 11.9951 14.9553 11.7598C14.6829 12.1073 14.6436 12.3653 14.676 12.8825C14.7097 13.2178 14.942 13.6928 14.9553 13.7159Z" fill="#05DF72"/>
<path d="M16.139 11.6904C15.6368 11.9705 15.4767 12.2529 15.4341 13.0099V13.0562C15.9018 12.8532 16.405 12.6279 16.405 12.246C16.405 11.864 16.3661 11.9129 16.405 11.783C16.4213 11.5408 16.514 11.4237 16.6843 11.2158C17.0942 11.1229 17.602 10.9148 17.8813 10.6834C18.1607 10.4519 18.3465 10.1249 18.4932 9.58374C18.1794 9.43404 17.07 9.90783 16.7774 10.4171C16.4848 10.9264 16.4629 11.4245 16.139 11.6904Z" fill="#05DF72"/>
<path d="M15.3673 16.6563C14.9949 16.8183 14.8619 17.1887 14.8619 17.3739C14.8267 17.8236 14.7759 18.147 14.7435 18.2939C14.7261 18.3018 14.716 18.3079 14.7156 18.3115C14.7059 18.4145 14.7197 18.402 14.7435 18.2939C14.8274 18.2556 15.0792 18.1742 15.2077 18.1263C15.1311 17.8981 15.1045 17.7384 15.1279 17.316C15.1614 17.0858 15.2511 16.9849 15.4737 16.8299C15.9644 16.6229 16.1697 16.4268 16.4447 15.9733C16.6781 15.9739 16.825 15.916 17.1097 15.7303C17.3369 15.5668 17.4366 15.4151 17.5752 15.0589C17.2292 15.0561 17.0634 15.0714 16.8171 15.1284C16.4654 15.2949 16.3883 15.4841 16.325 15.8807C16.0494 16.3183 15.7397 16.4942 15.3673 16.6563Z" fill="#05DF72"/>
<path d="M14.6687 16.8397C14.606 16.7833 14.548 16.734 14.5163 16.7143C14.4232 16.6564 14.3301 16.6564 14.1306 16.7143C13.9311 16.7721 13.838 16.8879 13.838 16.8879C13.838 16.8879 13.9178 17.0036 13.9444 17.0731C13.971 17.1425 14.104 17.2467 14.2104 17.2814C14.3139 17.3152 14.477 17.3074 14.636 17.2515L15.0084 17.1194L14.6687 16.8397Z" fill="#05DF72"/>
<path d="M17.0833 12.3853L17.1631 12.3042C17.1631 12.3042 17.203 12.1075 17.1897 12.0033C17.1764 11.8991 17.199 11.8605 17.0966 11.7486C16.9941 11.6368 16.8307 11.5282 16.7774 11.4824C16.666 11.5759 16.5646 11.656 16.538 11.7371C16.5114 11.8181 16.5114 11.957 16.6444 12.1538C16.7774 12.3505 17.0833 12.3853 17.0833 12.3853Z" fill="#05DF72"/>
<path d="M9.79444 15.7534L10.0871 16.1817L10.127 16.2511C10.127 16.2511 10.0206 15.8691 10.0206 15.7881C10.0206 15.7071 10.0206 15.3367 9.96735 15.1631C9.91415 14.9894 9.90085 15.0242 9.78114 14.7001C9.66144 14.376 9.00972 14.156 9.00972 14.156C8.97845 14.129 8.88226 14.8203 8.96982 15.0242C9.05738 15.228 9.80489 15.793 9.79444 15.7534Z" fill="#05DF72"/>
<path d="M7.02812 16.5635C7.02812 16.5635 7.05621 16.3015 7.07051 16.0347L7.18772 16.0079C7.18772 16.0079 7.48034 16.2394 7.65323 16.3088C7.82613 16.3783 8.02564 16.3436 8.02564 16.3436C8.02564 16.3436 8.19855 16.3436 8.25175 16.1699C8.30494 15.9963 8.25175 15.8806 8.25175 15.8806C8.25175 15.8806 8.10544 15.7764 8.02564 15.7532C7.94585 15.7301 7.85273 15.6954 7.60003 15.7532C7.34733 15.8111 7.18772 15.9269 7.18772 15.9269L7.05849 15.522C7.0573 15.5178 7.05604 15.5138 7.05472 15.5102C6.98822 15.325 6.88182 15.1976 6.72221 15.0587C6.5626 14.9198 6.49611 14.8851 6.2833 14.8504C6.07049 14.8157 6.01729 14.8504 6.01729 14.8504L6.09839 15.0533C6.10493 15.0705 6.11331 15.0915 6.1237 15.1166L6.09839 15.0533C6.03101 14.8764 6.15875 15.1123 6.2833 15.568C6.41994 16.068 6.93502 16.0658 6.93502 16.0658L6.86852 16.4477C6.8467 16.7958 6.6732 17.1876 6.58291 17.2135C6.55771 17.199 6.5445 17.193 6.54931 17.2001C6.55823 17.2133 6.56968 17.2173 6.58291 17.2135C6.67071 17.2642 6.90411 17.4179 7.02812 17.4779V16.5635Z" fill="#05DF72"/>
</g>
<defs>
<clipPath id="clip0_137_1004">
<rect y="0.886719" width="37" height="23" rx="2.66667" fill="white"/>
</clipPath>
</defs>
</svg>
