<svg width="43" height="43" viewBox="0 0 43 43" fill="none" xmlns="http://www.w3.org/2000/svg">
<path d="M42.1109 21.1043C42.1109 32.7329 32.6841 42.1597 21.0554 42.1597C9.42685 42.1597 0 32.7329 0 21.1043C0 9.47567 9.42685 0.0488281 21.0554 0.0488281C32.6841 0.0488281 42.1109 9.47567 42.1109 21.1043Z" fill="#19452F"/>
<path d="M42.1109 21.1043C42.1109 32.7329 32.6841 42.1597 21.0554 42.1597C9.42685 42.1597 0 32.7329 0 21.1043C0 9.47567 9.42685 0.0488281 21.0554 0.0488281C32.6841 0.0488281 42.1109 9.47567 42.1109 21.1043Z" fill="#19452F"/>
<path d="M28.4814 26.0136H28.8484C28.9745 25.7301 28.7355 25.7878 29.5258 25.2233C30.316 24.6588 30.4934 23.8267 30.937 22.9371C31.2477 21.7957 31.1546 21.2274 30.937 20.2275C29.3918 20.7478 29.1303 21.2126 28.7355 22.0621C28.3565 23.1169 28.7916 24.6864 28.6508 25.2233C28.51 25.7601 28.4814 26.0136 28.4814 26.0136Z" fill="#05DF72"/>
<path d="M30.2312 20.5097L29.7514 20.7638L29.7463 20.7663L29.6783 20.8074L29.582 20.8767L29.6103 20.8484L29.6106 20.8481L29.6385 20.8202L29.7514 20.6791C30.5437 19.429 30.8505 18.5541 31.3884 16.9817C31.7819 16.2432 32.0751 15.9602 32.6303 15.514C33.3406 14.9102 33.8781 14.7696 35.0011 14.752C35.0094 15.8147 34.8261 16.3882 34.2108 17.3768C33.4702 18.2659 32.6388 18.5395 31.0779 18.9856C30.7303 19.7745 30.5496 20.0548 30.2312 20.5097Z" fill="#05DF72"/>
<path d="M19.1953 9.53048C19.2518 9.50225 20.1084 10.9183 20.4654 11.7038V10.7441C20.4654 10.7441 19.5058 9.38935 19.534 9.30468C19.5623 9.22001 19.5648 8.64454 19.534 8.00636C19.3821 7.64431 19.2111 7.47084 18.8284 7.18785C18.4013 6.93572 18.1789 6.93905 17.7841 6.96205C17.6967 7.54692 17.733 7.82752 17.8688 8.2886C18.1198 9.02439 19.1389 9.5587 19.1953 9.53048Z" fill="#05DF72"/>
<path d="M18.9978 27.4248V28.4409C18.9978 28.4409 12.7319 26.5498 12.5908 26.5498C12.4497 26.5498 11.7597 26.3663 11.0385 26.8321C10.4566 27.0088 10.0456 27.0155 9.28855 27.0014C8.11037 26.9755 7.52722 26.5171 6.55078 25.3362C7.25652 24.8978 7.90854 24.8136 9.28855 24.7999C10.2737 24.9916 10.7861 25.1407 11.6594 25.4491C11.6594 25.4491 11.2078 24.9128 10.8691 24.7999C10.5304 24.687 9.51056 24.4519 8.44182 23.8967C7.69091 23.3781 7.37601 22.5824 6.83303 21.0743C8.32124 21.0577 8.81133 21.1644 9.345 21.4694C10.1276 22.0093 10.4945 22.5555 11.0385 23.8967C11.4635 24.6213 11.77 24.9892 12.365 25.6184L18.9978 27.4248Z" fill="#05DF72"/>
<path d="M20.3246 13.6798V17.9982V20.1714H21.877V18.3933V13.7927L22.7802 12.5226C22.7802 12.5226 23.3506 12.1093 24.2478 11.5912C25.2823 10.724 25.5636 9.89576 25.8284 8.14782C23.6075 8.70824 22.9387 9.28647 22.5544 10.688V11.7888C22.2505 12.4557 22.077 12.6635 21.7641 12.8613V5.66406H20.4657V12.8613L20.1553 12.5226C20.1188 11.5246 20.1142 10.9511 19.5343 10.434C18.7303 9.5738 18.1531 9.34422 16.9941 9.19212C17.4284 11.2398 17.9606 12.2992 20.0706 13.2847C20.217 13.4436 20.3029 13.533 20.3246 13.6798Z" fill="#05DF72"/>
<path d="M23.5984 27.7639V27.1712C23.5984 27.1712 28.1426 25.9576 28.1708 25.9293C28.1542 25.832 28.1347 25.789 28.0579 25.76L28.01 25.7529C28.0072 25.7525 28.0043 25.7521 28.0014 25.7516C27.5816 25.6807 26.277 24.2358 27.5498 22.373C27.5498 22.373 28.2272 23.0787 28.3966 23.502C28.5659 23.9254 28.3966 25.9293 28.3966 25.9293L30.2594 25.7035C30.8608 24.1311 31.1061 23.3045 32.2633 22.994C33.4205 22.6835 34.2039 22.6984 35.3116 22.7682C34.5679 24.5733 33.7571 25.2618 31.6142 25.9293C32.7338 26.4178 34.5777 26.6632 34.5777 26.6632C33.2484 26.6538 31.6221 26.2993 30.2594 26.0705C29.1902 26.1807 29.4657 26.186 28.3966 26.2962C26.6561 26.4356 25.5746 27.1108 23.5984 27.7639Z" fill="#05DF72"/>
<path d="M17.0503 32.3081L19.0261 34.566V35.3281C19.0261 35.3281 16.9092 32.7032 16.7963 32.5056C16.7286 32.5056 16.3447 32.2422 16.1754 32.1105C14.5586 32.5101 13.867 32.221 13.0142 30.8122C13.6133 30.6907 13.9437 30.6157 14.7077 30.6993L13.494 29.5138C12.6072 29.3516 12.2092 29.0287 11.6595 28.0744C11.4798 27.5515 11.4961 27.2054 11.5466 26.5785C13.2328 26.9975 13.7643 27.6174 13.861 29.5138L16.6806 31.9411C16.6814 31.8893 16.6834 31.8565 16.6834 31.8565C15.4983 30.3044 15.4019 29.286 15.7238 27.3406C17.5836 28.9123 18.0485 29.874 16.9657 31.8565L17.0503 32.3081Z" fill="#05DF72"/>
<path d="M28.3113 30.614L27.521 32.1381L27.0977 32.251C27.0977 32.251 27.9444 30.8115 28.0291 30.614C28.1137 30.4164 28.9139 27.6273 30.9926 27.3682C30.8868 28.5642 30.5933 29.1435 29.525 29.9648L28.3113 30.614Z" fill="#05DF72"/>
<path d="M18.9977 36.0054V23.6431L10.2764 10.8574H15.4979L21.3404 19.4377L26.6748 10.8574H32.0657L23.5983 23.6431V36.0054V37.4449H18.9977V36.0054Z" fill="#05DF72"/>
<path d="M25.6306 33.8603L23.542 35.9772V35.2433L25.433 33.4088C26.7768 31.9688 27.7846 31.8084 30.0054 32.6185C28.8745 33.7713 28.1473 34.0961 26.7031 34.1426L25.6306 33.8603Z" fill="#05DF72"/>
<path d="M14.7921 25.7318C14.7638 25.7883 14.7921 26.2963 14.7921 26.2963L14.6509 26.2117V25.7318C14.6509 25.7318 13.8926 24.8865 13.6631 23.6997C13.7812 22.0553 14.249 21.5357 14.7921 20.9619C15.3702 21.8095 15.4535 22.4385 15.3848 23.6997C15.3132 24.5173 14.8203 25.6754 14.7921 25.7318Z" fill="#05DF72"/>
<path d="M12.2799 20.7922C13.3457 21.4752 13.6854 22.164 13.7758 24.0098V24.1227C12.7834 23.6277 11.7154 23.0784 11.7154 22.147C11.7154 21.2156 11.7981 21.3348 11.7154 21.018C11.6809 20.4275 11.4841 20.1419 11.1227 19.635C10.253 19.4085 9.17522 18.9012 8.58251 18.3367C7.98979 17.7722 7.59543 16.975 7.28418 15.6554C7.95003 15.2903 10.3042 16.4456 10.9251 17.6875C11.5461 18.9294 11.5926 20.1438 12.2799 20.7922Z" fill="#05DF72"/>
<path d="M13.9177 32.9006C14.708 33.2958 14.9902 34.199 14.9902 34.6506C15.0649 35.7472 15.1727 36.5357 15.2415 36.8939C15.2784 36.9133 15.3 36.9281 15.3007 36.9367C15.3214 37.1881 15.292 37.1576 15.2415 36.8939C15.0635 36.8005 14.5291 36.602 14.2564 36.4852C14.4189 35.9288 14.4754 35.5393 14.4257 34.5094C14.3547 33.948 14.1644 33.702 13.6919 33.324C12.6507 32.8194 12.2151 32.3412 11.6315 31.2354C11.1362 31.2368 10.8244 31.0955 10.2203 30.6427C9.73812 30.2442 9.52662 29.8742 9.23242 29.0057C9.96666 28.9987 10.3185 29.0361 10.8412 29.175C11.5875 29.5812 11.7511 30.0425 11.8855 31.0096C12.4703 32.0766 13.1274 32.5055 13.9177 32.9006Z" fill="#05DF72"/>
<path d="M15.4004 33.3476C15.5334 33.21 15.6565 33.0897 15.7238 33.0416C15.9214 32.9005 16.1189 32.9005 16.5423 33.0416C16.9657 33.1828 17.1632 33.465 17.1632 33.465C17.1632 33.465 16.9939 33.7472 16.9374 33.9166C16.881 34.0859 16.5988 34.34 16.373 34.4246C16.1533 34.507 15.8072 34.4878 15.4698 34.3516L14.6795 34.0295L15.4004 33.3476Z" fill="#05DF72"/>
<path d="M10.2765 22.4857L10.1071 22.2881C10.1071 22.2881 10.0225 21.8083 10.0507 21.5543C10.0789 21.3003 10.0309 21.2061 10.2483 20.9333C10.4657 20.6605 10.8124 20.3958 10.9256 20.2842C11.1619 20.5122 11.3772 20.7075 11.4337 20.9051C11.4901 21.1027 11.4901 21.4414 11.2079 21.9212C10.9256 22.401 10.2765 22.4857 10.2765 22.4857Z" fill="#05DF72"/>
<path d="M25.7437 30.6996L25.1228 31.7439L25.0381 31.9133C25.0381 31.9133 25.2639 30.9818 25.2639 30.7843C25.2639 30.5867 25.2639 29.6835 25.3768 29.2602C25.4897 28.8368 25.5179 28.9215 25.7719 28.1312C26.0259 27.3409 27.4089 26.8046 27.4089 26.8046C27.4753 26.7385 27.6794 28.4243 27.4936 28.9215C27.3078 29.4186 25.7215 30.7961 25.7437 30.6996Z" fill="#05DF72"/>
<path d="M31.6136 32.6748C31.6136 32.6748 31.554 32.0361 31.5237 31.3855L31.2749 31.32C31.2749 31.32 30.654 31.8845 30.2871 32.0539C29.9202 32.2232 29.4968 32.1385 29.4968 32.1385C29.4968 32.1385 29.1299 32.1385 29.017 31.7152C28.9041 31.2918 29.017 31.0096 29.017 31.0096C29.017 31.0096 29.3275 30.7556 29.4968 30.6991C29.6661 30.6427 29.8637 30.558 30.4 30.6991C30.9362 30.8402 31.2749 31.1225 31.2749 31.1225L31.5492 30.1352C31.5517 30.125 31.5544 30.1153 31.5572 30.1064C31.6983 29.6548 31.9241 29.3443 32.2628 29.0056C32.6015 28.6669 32.7426 28.5823 33.1942 28.4976C33.6458 28.4129 33.7587 28.4976 33.7587 28.4976L33.5866 28.9924C33.5727 29.0342 33.5549 29.0855 33.5329 29.1468L33.5866 28.9924C33.7296 28.5611 33.4585 29.1362 33.1942 30.2475C32.9042 31.4667 31.8112 31.4612 31.8112 31.4612L31.9523 32.3926C31.9986 33.2413 32.3668 34.1966 32.5584 34.2599C32.6119 34.2245 32.6399 34.2098 32.6297 34.2272C32.6108 34.2593 32.5865 34.2692 32.5584 34.2599C32.3721 34.3834 31.8768 34.7583 31.6136 34.9045V32.6748Z" fill="#05DF72"/>
</svg>
