<svg width="36" height="35" viewBox="0 0 36 35" fill="none" xmlns="http://www.w3.org/2000/svg">
<g clip-path="url(#clip0_284_965)">
<path d="M16.666 0.727539C21.7572 0.727622 26.3142 3.01135 29.3711 6.60938C28.0076 8.28806 28.0592 11.0602 28.5 11.501C28.8568 11.8574 30.7382 11.702 32.1514 11.2227C32.9125 13.1312 33.3311 15.2135 33.3311 17.3936C33.3309 26.5976 25.87 34.0584 16.666 34.0586C7.46188 34.0586 0.000150506 26.5977 0 17.3936C0 8.18932 7.46178 0.727539 16.666 0.727539Z" fill="#99C04B"/>
<path d="M7.53762 21.4817C6.92507 21.4817 6.37125 21.3768 5.87618 21.167C5.38949 20.9572 5.0035 20.6551 4.7182 20.2608C4.4329 19.8664 4.28606 19.4007 4.27766 18.8636H6.16567C6.19084 19.2244 6.31671 19.5097 6.54327 19.7195C6.77822 19.9293 7.09709 20.0342 7.49986 20.0342C7.91103 20.0342 8.23409 19.9377 8.46904 19.7447C8.70399 19.5433 8.82147 19.2832 8.82147 18.9643C8.82147 18.7042 8.74175 18.4902 8.58232 18.3224C8.42289 18.1546 8.2215 18.0245 7.97816 17.9322C7.74321 17.8315 7.41595 17.7224 6.99639 17.605C6.4258 17.4371 5.96009 17.2735 5.59927 17.1141C5.24684 16.9462 4.94056 16.6987 4.68044 16.3715C4.42871 16.0358 4.30284 15.5911 4.30284 15.0373C4.30284 14.517 4.4329 14.0639 4.69303 13.6779C4.95315 13.2919 5.31817 12.9982 5.78807 12.7968C6.25797 12.5871 6.79501 12.4822 7.39917 12.4822C8.30541 12.4822 9.03964 12.7045 9.60184 13.1493C10.1724 13.5856 10.4871 14.1982 10.5458 14.9869H8.60749C8.59071 14.6848 8.46065 14.4373 8.21731 14.2443C7.98235 14.0429 7.66769 13.9422 7.2733 13.9422C6.92927 13.9422 6.65236 14.0303 6.44258 14.2065C6.24119 14.3828 6.1405 14.6387 6.1405 14.9743C6.1405 15.2093 6.21602 15.4065 6.36706 15.5659C6.52649 15.7169 6.71949 15.8428 6.94605 15.9435C7.181 16.0358 7.50825 16.1449 7.92781 16.2708C8.49841 16.4386 8.96412 16.6064 9.32494 16.7742C9.68576 16.9421 9.99623 17.1938 10.2564 17.5294C10.5165 17.8651 10.6465 18.3056 10.6465 18.851C10.6465 19.3209 10.5249 19.7573 10.2815 20.1601C10.0382 20.5628 9.68156 20.8859 9.21166 21.1292C8.74175 21.3642 8.18374 21.4817 7.53762 21.4817ZM11.7463 16.9882C11.7463 16.1239 11.9393 15.3519 12.3253 14.6723C12.7197 13.9842 13.2525 13.4513 13.9238 13.0737C14.6035 12.6877 15.3629 12.4947 16.202 12.4947C17.1838 12.4947 18.0439 12.7465 18.7823 13.25C19.5207 13.7534 20.0368 14.4499 20.3304 15.3393H18.304C18.1026 14.9198 17.8173 14.6051 17.4481 14.3953C17.0873 14.1856 16.6677 14.0807 16.1894 14.0807C15.6776 14.0807 15.2202 14.2023 14.8175 14.4457C14.4231 14.6806 14.1126 15.0163 13.886 15.4526C13.6679 15.889 13.5588 16.4008 13.5588 16.9882C13.5588 17.5672 13.6679 18.0791 13.886 18.5238C14.1126 18.9601 14.4231 19.3 14.8175 19.5433C15.2202 19.7783 15.6776 19.8957 16.1894 19.8957C16.6677 19.8957 17.0873 19.7908 17.4481 19.5811C17.8173 19.3629 18.1026 19.044 18.304 18.6245H20.3304C20.0368 19.5223 19.5207 20.223 18.7823 20.7265C18.0522 21.2215 17.1922 21.4691 16.202 21.4691C15.3629 21.4691 14.6035 21.2803 13.9238 20.9027C13.2525 20.5167 12.7197 19.9838 12.3253 19.3042C11.9393 18.6245 11.7463 17.8525 11.7463 16.9882ZM21.4076 16.9882C21.4076 16.1239 21.6006 15.3519 21.9866 14.6723C22.381 13.9842 22.9138 13.4513 23.5851 13.0737C24.2648 12.6877 25.0242 12.4947 25.8633 12.4947C26.845 12.4947 27.7051 12.7465 28.4436 13.25C29.182 13.7534 29.698 14.4499 29.9917 15.3393H27.9653C27.7639 14.9198 27.4786 14.6051 27.1094 14.3953C26.7486 14.1856 26.329 14.0807 25.8507 14.0807C25.3388 14.0807 24.8815 14.2023 24.4787 14.4457C24.0844 14.6806 23.7739 15.0163 23.5473 15.4526C23.3292 15.889 23.2201 16.4008 23.2201 16.9882C23.2201 17.5672 23.3292 18.0791 23.5473 18.5238C23.7739 18.9601 24.0844 19.3 24.4787 19.5433C24.8815 19.7783 25.3388 19.8957 25.8507 19.8957C26.329 19.8957 26.7486 19.7908 27.1094 19.5811C27.4786 19.3629 27.7639 19.044 27.9653 18.6245H29.9917C29.698 19.5223 29.182 20.223 28.4436 20.7265C27.7135 21.2215 26.8534 21.4691 25.8633 21.4691C25.0242 21.4691 24.2648 21.2803 23.5851 20.9027C22.9138 20.5167 22.381 19.9838 21.9866 19.3042C21.6006 18.6245 21.4076 17.8525 21.4076 16.9882Z" fill="white"/>
<path d="M32.9998 7.27909C32.4959 7.8063 29.3035 10.7276 29.2121 11.0668C29.1206 11.4059 35.2206 11.1186 35.2723 5.00662C29.2769 4.85009 29.0873 7.48813 28.606 10.7639C30.1972 9.36164 33.5037 6.75188 32.9998 7.27909Z" fill="#99C04B"/>
</g>
<defs>
<clipPath id="clip0_284_965">
<rect width="36" height="35" fill="white"/>
</clipPath>
</defs>
</svg>
