<svg width="23" height="27" viewBox="0 0 23 27" fill="none" xmlns="http://www.w3.org/2000/svg">
<g clip-path="url(#clip0_279_938)">
<path d="M13.4573 26.467H1.04271C0.468401 26.467 0 25.9929 0 25.4117V1.05528C0 0.474047 0.468391 0 1.04271 0H13.4573C14.0316 0 14.5 0.474036 14.5 1.05528V25.4117C14.5 25.9929 14.0332 26.467 13.4573 26.467ZM1.04271 0.72622C0.86331 0.72622 0.717999 0.873283 0.717999 1.05484V25.4113C0.717999 25.5928 0.86331 25.7399 1.04271 25.7399H13.4573C13.6367 25.7399 13.782 25.5928 13.782 25.4113V1.05484C13.782 0.873283 13.6367 0.72622 13.4573 0.72622H1.04271Z" fill="black"/>
<path d="M14.1372 3.64169H0.358905C0.160578 3.64169 0 3.47914 0 3.27837C0 3.07759 0.160578 2.91504 0.358905 2.91504H14.1372C14.3355 2.91504 14.4961 3.07759 14.4961 3.27837C14.4961 3.47893 14.3353 3.64169 14.1372 3.64169Z" fill="black"/>
<path d="M14.1372 22.714H0.358905C0.160578 22.714 0 22.5514 0 22.3506C0 22.1499 0.160578 21.9873 0.358905 21.9873H14.1372C14.3355 21.9873 14.4961 22.1499 14.4961 22.3506C14.4961 22.5512 14.3353 22.714 14.1372 22.714Z" fill="black"/>
<path d="M8.7957 24.5987H5.70266C5.50433 24.5987 5.34375 24.4362 5.34375 24.2354C5.34375 24.0346 5.50433 23.8721 5.70266 23.8721H8.7957C8.99403 23.8721 9.15461 24.0346 9.15461 24.2354C9.1544 24.4362 8.99382 24.5987 8.7957 24.5987Z" fill="black"/>
<path d="M21.04 6.5918C21.2384 6.5918 21.3994 6.75433 21.3994 6.95508C21.3992 7.15585 21.2382 7.31836 21.04 7.31836H15.9414C15.7431 7.31836 15.582 7.15585 15.582 6.95508C15.5821 6.75433 15.7431 6.5918 15.9414 6.5918H21.04Z" fill="black"/>
<path d="M21.04 6.5918C21.2384 6.5918 21.3994 6.75433 21.3994 6.95508C21.3992 7.15585 21.2382 7.31836 21.04 7.31836H15.9414C15.7431 7.31836 15.582 7.15585 15.582 6.95508C15.5821 6.75433 15.7431 6.5918 15.9414 6.5918H21.04Z" stroke="black"/>
<path d="M19.7451 5.64062C19.8853 5.49892 20.112 5.4989 20.252 5.64062L21.2949 6.69629C21.4348 6.83822 21.435 7.06838 21.2949 7.20996L20.252 8.26465C20.1804 8.33871 20.0902 8.37298 19.998 8.37305C19.906 8.37305 19.8153 8.33723 19.7451 8.2666C19.6049 8.1247 19.605 7.89462 19.7451 7.75293L20.5342 6.95312L19.7451 6.1543C19.6049 6.01239 19.6049 5.78232 19.7451 5.64062Z" fill="black"/>
<path d="M19.7451 5.64062C19.8853 5.49892 20.112 5.4989 20.252 5.64062L21.2949 6.69629C21.4348 6.83822 21.435 7.06838 21.2949 7.20996L20.252 8.26465C20.1804 8.33871 20.0902 8.37298 19.998 8.37305C19.906 8.37305 19.8153 8.33723 19.7451 8.2666C19.6049 8.1247 19.605 7.89462 19.7451 7.75293L20.5342 6.95312L19.7451 6.1543C19.6049 6.01239 19.6049 5.78232 19.7451 5.64062Z" stroke="black"/>
<path d="M22.3721 9.2959C22.5704 9.2959 22.7314 9.45843 22.7314 9.65918C22.7314 9.85974 22.5704 10.0225 22.3721 10.0225H17.2734C17.0751 10.0225 16.9141 9.85995 16.9141 9.65918C16.9141 9.45843 17.0751 9.2959 17.2734 9.2959H22.3721Z" fill="black"/>
<path d="M22.3721 9.2959C22.5704 9.2959 22.7314 9.45843 22.7314 9.65918C22.7314 9.85974 22.5704 10.0225 22.3721 10.0225H17.2734C17.0751 10.0225 16.9141 9.85995 16.9141 9.65918C16.9141 9.45843 17.0751 9.2959 17.2734 9.2959H22.3721Z" stroke="black"/>
<path d="M18.0615 8.34668C18.2017 8.20478 18.4294 8.20478 18.5693 8.34668C18.7093 8.48855 18.7093 8.7187 18.5693 8.86035L17.7793 9.65918L18.5693 10.459C18.7092 10.6009 18.7094 10.8311 18.5693 10.9727C18.4996 11.0439 18.4069 11.0781 18.3145 11.0781C18.2223 11.0781 18.1317 11.0415 18.0615 10.9707L17.0195 9.91602C16.8794 9.77413 16.8794 9.54404 17.0195 9.40234L18.0615 8.34668Z" fill="black"/>
<path d="M18.0615 8.34668C18.2017 8.20478 18.4294 8.20478 18.5693 8.34668C18.7093 8.48855 18.7093 8.7187 18.5693 8.86035L17.7793 9.65918L18.5693 10.459C18.7092 10.6009 18.7094 10.8311 18.5693 10.9727C18.4996 11.0439 18.4069 11.0781 18.3145 11.0781C18.2223 11.0781 18.1317 11.0415 18.0615 10.9707L17.0195 9.91602C16.8794 9.77413 16.8794 9.54404 17.0195 9.40234L18.0615 8.34668Z" stroke="black"/>
<path d="M9.60156 14.0941H9.71343C9.7519 14.0077 9.67901 14.0253 9.91995 13.8532C10.1609 13.6811 10.215 13.4274 10.3502 13.1562C10.4449 12.8082 10.4166 12.6349 10.3502 12.3301C9.8791 12.4887 9.79939 12.6304 9.67901 12.8894C9.56347 13.211 9.69611 13.6895 9.65319 13.8532C9.61027 14.0169 9.60156 14.0941 9.60156 14.0941Z" fill="black"/>
<path d="M10.1354 12.4166L9.98913 12.494L9.98759 12.4948L9.96685 12.5073L9.9375 12.5284L9.94611 12.5198L9.94621 12.5197L9.95471 12.5112L9.98913 12.4682C10.2307 12.0871 10.3242 11.8203 10.4882 11.3409C10.6082 11.1158 10.6976 11.0295 10.8669 10.8935C11.0834 10.7094 11.2473 10.6665 11.5897 10.6611C11.5922 10.9852 11.5363 11.16 11.3487 11.4614C11.1229 11.7325 10.8695 11.8159 10.3936 11.9519C10.2876 12.1924 10.2325 12.2779 10.1354 12.4166Z" fill="black"/>
<path d="M6.77112 9.06831C6.78833 9.05971 7.04949 9.49142 7.15835 9.7309V9.43833C7.15835 9.43833 6.86578 9.02529 6.87438 8.99947C6.88299 8.97365 6.88377 8.7982 6.87438 8.60363C6.82806 8.49326 6.77593 8.44037 6.65926 8.35409C6.52903 8.27722 6.46122 8.27823 6.34086 8.28525C6.31422 8.46356 6.32527 8.54911 6.36668 8.68969C6.44319 8.91402 6.75391 9.07692 6.77112 9.06831Z" fill="black"/>
<path d="M6.71089 14.524V14.8337C6.71089 14.8337 4.80054 14.2572 4.75752 14.2572C4.71449 14.2572 4.50411 14.2012 4.28423 14.3432C4.10683 14.3971 3.98153 14.3992 3.75072 14.3949C3.39151 14.387 3.21372 14.2472 2.91602 13.8872C3.13118 13.7535 3.32997 13.7278 3.75072 13.7237C4.05107 13.7821 4.20728 13.8276 4.47355 13.9216C4.47355 13.9216 4.33587 13.7581 4.2326 13.7237C4.12934 13.6893 3.8184 13.6176 3.49256 13.4483C3.26362 13.2902 3.16761 13.0476 3.00207 12.5878C3.4558 12.5827 3.60522 12.6153 3.76793 12.7083C4.00654 12.8729 4.11839 13.0394 4.28423 13.4483C4.41381 13.6692 4.50726 13.7814 4.68868 13.9732L6.71089 14.524Z" fill="black"/>
<path d="M7.11502 10.3335V11.6501V12.3127H7.5883V11.7706V10.3679L7.86367 9.98069C7.86367 9.98069 8.03758 9.85469 8.31113 9.69672C8.62653 9.43233 8.71229 9.17981 8.79302 8.6469C8.11591 8.81776 7.912 8.99405 7.79482 9.42136V9.75696C7.7022 9.9603 7.64928 10.0236 7.55388 10.084V7.88965H7.15804V10.084L7.06339 9.98069C7.05228 9.67642 7.05087 9.50157 6.87407 9.34391C6.62894 9.08166 6.45294 9.01166 6.09961 8.96529C6.23201 9.5896 6.39426 9.91257 7.03757 10.213C7.08222 10.2615 7.10838 10.2888 7.11502 10.3335Z" fill="black"/>
<path d="M8.11344 14.4453V14.626C8.71593 14.4269 9.04567 14.221 9.57631 14.1785C9.90228 14.1449 9.81828 14.1433 10.1443 14.1097C10.5597 14.1795 11.0555 14.2876 11.4608 14.2904C11.4608 14.2904 10.8987 14.2156 10.5573 14.0667C11.2106 13.8632 11.4578 13.6532 11.6846 13.1029C11.3469 13.0816 11.108 13.0771 10.7552 13.1717C10.4024 13.2664 10.3276 13.5184 10.1443 13.9978L9.57631 14.0667C9.57631 14.0667 9.62794 13.4557 9.57631 13.3266C9.52468 13.1975 9.31816 12.9824 9.31816 12.9824C8.93008 13.5503 9.32783 13.9909 9.45584 14.0125C9.45672 14.0126 9.4576 14.0128 9.45846 14.0129L9.45584 14.0125C9.32783 13.9909 8.93008 13.5503 9.31816 12.9824C9.31816 12.9824 9.52468 13.1975 9.57631 13.3266C9.62794 13.4557 9.57631 14.0667 9.57631 14.0667L10.1443 13.9978C10.3276 13.5184 10.4024 13.2664 10.7552 13.1717C11.108 13.0771 11.3469 13.0816 11.6846 13.1029C11.4578 13.6532 11.2106 13.8632 10.5573 14.0667C10.8987 14.2156 11.4608 14.2904 11.4608 14.2904C11.0555 14.2876 10.5597 14.1795 10.1443 14.1097C9.81828 14.1433 9.90228 14.1449 9.57631 14.1785C9.04567 14.221 8.71593 14.4269 8.11344 14.626V14.4453C8.11344 14.4453 9.49887 14.0753 9.50747 14.0667C9.50241 14.037 9.49647 14.0239 9.47305 14.015L9.45846 14.0129C9.4576 14.0128 9.45672 14.0126 9.45584 14.0125L9.45846 14.0129C9.46544 14.0138 9.47154 14.0133 9.47659 14.0115L9.49026 13.9978C9.53171 13.8888 9.51607 14.0581 9.50747 14.0667C9.49887 14.0753 8.11344 14.4453 8.11344 14.4453Z" fill="black"/>
<path d="M6.11704 16.0114L6.7194 16.6998V16.9322C6.7194 16.9322 6.07401 16.1319 6.03959 16.0717C6.01894 16.0717 5.90191 15.9913 5.85028 15.9512C5.35736 16.073 5.1465 15.9849 4.8865 15.5554C5.06916 15.5183 5.16988 15.4954 5.40281 15.5209L5.03279 15.1595C4.7624 15.1101 4.64106 15.0116 4.47345 14.7207C4.41867 14.5612 4.42366 14.4557 4.43903 14.2646C4.95314 14.3923 5.11519 14.5813 5.14466 15.1595L6.00431 15.8996C6.00455 15.8838 6.00518 15.8737 6.00518 15.8737C5.64386 15.4006 5.61446 15.09 5.7126 14.4969C6.27962 14.9761 6.42137 15.2693 6.09123 15.8737L6.11704 16.0114Z" fill="black"/>
<path d="M9.54971 15.4964L9.30876 15.9611L9.17969 15.9955C9.17969 15.9955 9.43784 15.5567 9.46366 15.4964C9.48947 15.4362 9.73343 14.5859 10.3672 14.5068C10.3349 14.8715 10.2454 15.0481 9.91973 15.2985L9.54971 15.4964Z" fill="black"/>
<path d="M6.70977 17.1388V13.3698L4.05078 9.47168H5.64273L7.424 12.0876L9.05037 9.47168H10.694L8.11241 13.3698V17.1388V17.5777H6.70977V17.1388Z" fill="black"/>
<path d="M8.73346 16.486L8.09668 17.1314V16.9076L8.67322 16.3483C9.08291 15.9093 9.39019 15.8604 10.0673 16.1073C9.72248 16.4588 9.50075 16.5579 9.06046 16.572L8.73346 16.486Z" fill="black"/>
<path d="M5.42819 14.009C5.41959 14.0262 5.42819 14.1811 5.42819 14.1811L5.38516 14.1552V14.009C5.38516 14.009 5.15395 13.7512 5.08398 13.3894C5.11999 12.888 5.26263 12.7296 5.42819 12.5547C5.60445 12.8131 5.62986 13.0049 5.6089 13.3894C5.58709 13.6386 5.4368 13.9917 5.42819 14.009Z" fill="black"/>
<path d="M4.66276 12.502C4.9877 12.7103 5.09127 12.9203 5.11883 13.483V13.5174C4.81626 13.3665 4.49066 13.1991 4.49066 12.9151C4.49066 12.6311 4.51585 12.6675 4.49066 12.5709C4.48013 12.3909 4.42012 12.3038 4.30995 12.1492C4.04478 12.0802 3.71619 11.9255 3.53549 11.7534C3.35478 11.5813 3.23454 11.3382 3.13965 10.9359C3.34266 10.8246 4.0604 11.1769 4.24971 11.5555C4.43903 11.9341 4.45321 12.3044 4.66276 12.502Z" fill="black"/>
<path d="M5.16088 16.1946C5.40182 16.3151 5.48787 16.5904 5.48787 16.7281C5.51064 17.0624 5.54352 17.3028 5.56447 17.412C5.57573 17.418 5.58231 17.4225 5.58253 17.4251C5.58884 17.5017 5.57989 17.4924 5.56447 17.412C5.51021 17.3836 5.34728 17.3231 5.26414 17.2874C5.3137 17.1178 5.33093 16.9991 5.31577 16.6851C5.29412 16.5139 5.23609 16.4389 5.09204 16.3237C4.77459 16.1698 4.64178 16.024 4.46386 15.6869C4.31284 15.6873 4.2178 15.6442 4.0336 15.5062C3.8866 15.3847 3.82212 15.2719 3.73242 15.0071C3.95628 15.005 4.06354 15.0164 4.22292 15.0587C4.45045 15.1825 4.50031 15.3232 4.54131 15.618C4.7196 15.9433 4.91993 16.0741 5.16088 16.1946Z" fill="black"/>
<path d="M5.61326 16.3304C5.65381 16.2885 5.69133 16.2518 5.71186 16.2372C5.77209 16.1941 5.83233 16.1941 5.96141 16.2372C6.09049 16.2802 6.15072 16.3662 6.15072 16.3662C6.15072 16.3662 6.09909 16.4523 6.08188 16.5039C6.06467 16.5556 5.97862 16.633 5.90978 16.6588C5.8428 16.6839 5.73729 16.6781 5.63441 16.6366L5.39347 16.5383L5.61326 16.3304Z" fill="black"/>
<path d="M4.05107 13.0189L3.99944 12.9586C3.99944 12.9586 3.97362 12.8123 3.98222 12.7349C3.99083 12.6574 3.97618 12.6287 4.04246 12.5456C4.10874 12.4624 4.21445 12.3817 4.24898 12.3477C4.32101 12.4172 4.38667 12.4767 4.40388 12.537C4.42109 12.5972 4.42109 12.7005 4.33504 12.8468C4.24898 12.993 4.05107 13.0189 4.05107 13.0189Z" fill="black"/>
<path d="M8.76786 15.5221L8.57855 15.8405L8.55273 15.8921C8.55273 15.8921 8.62158 15.6081 8.62158 15.5479C8.62158 15.4876 8.62158 15.2123 8.656 15.0832C8.69042 14.9541 8.69902 14.9799 8.77647 14.739C8.85391 14.4981 9.27557 14.3346 9.27557 14.3346C9.2958 14.3144 9.35803 14.8284 9.30138 14.9799C9.24473 15.1315 8.7611 15.5515 8.76786 15.5221Z" fill="black"/>
<path d="M10.556 16.1249C10.556 16.1249 10.5378 15.9301 10.5286 15.7318L10.4527 15.7118C10.4527 15.7118 10.2634 15.8839 10.1516 15.9356C10.0397 15.9872 9.91061 15.9614 9.91061 15.9614C9.91061 15.9614 9.79874 15.9614 9.76432 15.8323C9.7299 15.7032 9.76432 15.6172 9.76432 15.6172C9.76432 15.6172 9.85898 15.5397 9.91061 15.5225C9.96223 15.5053 10.0225 15.4795 10.186 15.5225C10.3495 15.5655 10.4527 15.6516 10.4527 15.6516L10.5363 15.3506C10.5371 15.3475 10.5379 15.3445 10.5388 15.3418C10.5818 15.2041 10.6506 15.1095 10.7539 15.0062C10.8572 14.9029 10.9002 14.8771 11.0379 14.8513C11.1756 14.8255 11.21 14.8513 11.21 14.8513L11.1575 15.0022C11.1533 15.0149 11.1479 15.0306 11.1411 15.0492L11.1575 15.0022C11.2011 14.8707 11.1185 15.046 11.0379 15.3848C10.9495 15.7565 10.6162 15.7549 10.6162 15.7549L10.6593 16.0388C10.6734 16.2976 10.7856 16.5888 10.844 16.6081C10.8603 16.5973 10.8689 16.5929 10.8658 16.5982C10.86 16.608 10.8526 16.611 10.844 16.6081C10.7872 16.6458 10.6362 16.7601 10.556 16.8047V16.1249Z" fill="black"/>
<path d="M7.2998 7.82422C10.0536 7.82422 12.2861 10.0568 12.2861 12.8105C12.2861 15.5644 10.0536 17.7969 7.2998 17.7969C4.54604 17.7968 2.31348 15.5643 2.31348 12.8105C2.31356 10.0568 4.54609 7.8243 7.2998 7.82422Z" stroke="black" stroke-width="0.406698"/>
</g>
<defs>
<clipPath id="clip0_279_938">
<rect width="22.8708" height="26.3578" fill="white"/>
</clipPath>
</defs>
</svg>
