<svg width="210" height="201" viewBox="0 0 210 201" fill="none" xmlns="http://www.w3.org/2000/svg">
<path d="M21.2886 162.661C24.287 161.177 29.5222 165.855 29.7886 168.167C31.6906 193.542 40.1763 195.429 54.2876 200.667L17.2886 200.16C18.2884 196.66 17.9727 194.738 24.7886 192.16C12.3852 181.266 18.2901 164.146 21.2886 162.661ZM95.2895 117.047C102.482 134.111 106.642 142.692 111.29 162.547C112.455 171.29 113.289 176.547 111.29 184.047C109.29 191.547 106.686 196.515 103.29 200.667H60.2895C60.0063 196.258 61.1679 194.165 68.7895 192.047C59.0123 178.936 65.2782 160.857 73.7895 159.547C82.3012 158.237 91.428 158.217 96.2895 143.047C96.28 143.008 95.5023 139.858 94.2895 141.547C93.0693 143.247 91.7067 151.752 81.2895 155.547C70.8719 159.341 56.2638 155.694 54.7895 154.547C53.315 153.401 50.2891 158.046 46.2895 157.047C42.2901 156.046 40.2901 149.547 43.7895 146.547C47.2894 143.547 50.9328 143.538 56.2895 147.547C61.9468 145.069 64.9721 143.28 69.2895 137.047C71.4726 133.965 71.2797 130.197 70.2895 122.547C79.4807 122.589 85.1555 120.945 95.2895 117.047ZM156.789 46.0554C175.288 30.5569 192.289 36.0593 209.789 51.5495C210.257 63.0131 210.175 68.4235 201.289 80.5554C199.627 54.8314 175.289 55.5555 169.789 63.9626C165.6 67.9972 162.907 74.825 163.789 89.0554C164.67 103.286 176.486 122.28 173.289 152.055C170.091 181.831 139.894 202.11 108.789 197.05C109.989 195.05 113.288 185.55 114.789 181.05C136.134 182.236 156.271 160.551 152.289 128.05C139.987 87.747 138.289 61.554 156.789 46.0554ZM124.79 194.557C124.789 193.557 124.289 181.558 123.29 182.557C122.489 183.358 118.956 187.558 117.29 189.557L124.79 194.557ZM132.79 185.057C130.956 183.891 127.19 181.557 126.79 181.557C126.393 181.564 129.957 189.559 131.79 193.557L134.29 188.057L139.79 190.057L132.79 178.057V185.057ZM122.79 190.557L120.79 190.057V188.057L122.79 187.057V190.557ZM141.29 184.557C143.956 184.391 149.387 184.158 149.79 184.557C150.19 184.957 144.29 177.391 141.29 173.557V184.557ZM143.79 179.057C144.19 178.258 145.29 181.057 145.79 182.557L142.79 182.057C142.956 181.391 143.39 179.857 143.79 179.057ZM142.29 0.0563758C149.552 -0.441737 165.172 2.52421 165.29 2.54661C187.468 7.68818 203.556 25.4827 208.79 45.5466C194.961 33.3099 190.289 32.0564 178.29 32.5564C160.43 30.9864 141.265 54.3071 139.499 66.0564C137.734 77.8057 139.725 93.749 146.29 123.556C154.854 152.906 138.366 175.738 115.29 177.056C115.172 175.341 115.104 173.847 115.041 172.466C114.781 166.712 114.608 162.894 111.29 153.047C111.539 134.284 108.726 128.037 104.885 119.505V119.504C104.061 117.672 103.189 115.735 102.29 113.547C118.938 97.2595 122.198 85.2899 107.79 55.0466L106.29 23.0466L95.2895 43.5466C112.789 63.0562 126.847 96.4278 96.2895 113.547C85.2816 119.091 76.5969 119.081 58.0259 119.059C56.8233 119.058 55.5783 119.056 54.2895 119.056C33.0976 119.056 14.7886 117.056 5.28953 102.556C-4.20933 88.0564 -0.438428 65.4517 12.7895 48.5564C13.8384 35.6383 15.0792 28.3188 19.7895 15.0564C25.8392 19.7081 28.9351 22.4913 33.7895 28.0564C31.8802 32.2484 31.2164 34.8717 30.7895 40.0564L91.4985 45.0564C90.7332 40.3977 89.9724 37.4338 87.9985 33.0564C89.5287 31.5439 94.9985 30.0561 97.9985 26.0564C100.998 22.0564 98.6663 24.4742 103.79 19.0564C105.044 17.175 107.112 15.272 109.79 13.446C117.162 8.48135 121.275 5.91238 128.29 3.55638C128.29 3.55638 135 0.556508 142.29 0.0563758ZM149.29 171.557V175.557L151.79 174.057L157.29 176.057C156.888 175.257 149.789 170.057 146.29 167.557L149.29 171.557ZM163.29 166.057C160.123 163.891 153.69 159.658 153.29 160.057C152.891 160.46 154.79 166.891 155.79 170.057C156.19 170.057 160.956 167.391 163.29 166.057ZM24.7895 146.543C24.1239 146.339 41.6259 144.805 40.7895 145.547C36.2784 149.546 39.0192 160.587 47.7895 160.645L39.2895 168.145L25.7895 160.144C29.9531 156.455 28.5787 147.679 24.7895 146.543ZM158.79 166.057L158.29 167.057L156.79 166.057L156.29 164.057L158.79 166.057ZM157.29 149.557L159.79 153.057L156.29 157.557C157.789 157.557 160.289 154.558 160.79 156.057C161.189 157.257 163.623 159.224 164.79 160.057L165.79 159.057C164.623 157.724 162.392 155.06 162.79 155.057C163.19 155.057 165.956 152.391 167.29 151.057L165.79 150.057L163.29 151.557L162.29 152.055L158.79 148.057L157.29 149.557ZM21.2895 147.047L25.7895 151.547V156.047L22.2895 159.547L16.7895 154.547L17.2895 149.047L19.2895 146.543L21.2895 147.047ZM158.223 135.557C159.3 136.784 160.94 138.556 161.29 138.557C161.69 138.557 161.456 140.557 161.29 141.557H157.79C157.29 141.558 157.789 143.058 157.79 144.057C157.79 145.057 167.788 144.058 169.29 144.057C170.49 144.057 169.79 143.057 169.29 142.557C167.879 142.223 165.182 140.2 164.29 138.557C163.602 137.29 167.123 136.224 169.29 135.557H158.223ZM38.2895 129.047C47.5923 130.868 50.8374 133.646 54.2895 139.547C42.7893 140.213 19.6895 141.547 19.2895 141.547C21.5746 135.532 24.16 132.6 33.7895 129.047V125.547H38.2895V129.047ZM164.29 124.557L161.79 122.057L160.29 123.057L159.29 125.057L156.79 123.057C156.456 124.057 155.891 126.056 156.29 126.057C156.789 126.057 157.789 127.066 157.79 127.557C157.79 127.951 158.123 130.388 158.29 131.557C158.69 131.157 160.123 129.391 160.79 128.557L162.79 130.557L165.29 128.05L168.79 129.557L165.79 125.057L167.79 121.557L164.29 124.557ZM158.79 113.057L153.79 111.557C155.289 112.724 158.189 115.157 157.79 115.557C157.389 115.958 155.289 117.391 154.29 118.057L155.29 120.057C157.789 120.057 159.29 118.058 160.29 118.057C161.089 118.057 163.956 117.724 165.29 117.557L164.79 115.557L160.79 114.057L163.79 112.057L161.79 109.557L158.79 113.057ZM45.022 88.5447C43.4881 88.5201 42.1437 88.4983 40.7886 88.5564C40.4312 88.5717 40.0771 88.5807 39.7358 88.5896C38.3632 88.6253 37.1905 88.6561 36.7895 89.0564C36.2902 89.5584 39.2869 95.542 42.5669 98.4636L36.7895 98.0564V99.0564C37.8952 101.193 37.8838 101.444 37.7944 103.442L37.7895 103.556H42.2895C44.8064 104.506 45.8856 105.29 47.2895 107.056L48.7895 99.0564L43.2895 98.5144C45.4002 96.8811 47.2607 95.2729 48.604 93.488C48.9397 93.0419 49.2781 92.5925 49.6313 92.1413C49.6821 92.0765 49.7446 91.9987 49.8149 91.9109C50.4482 91.1195 51.7387 89.5063 51.2895 89.0564C50.8453 88.6127 48.4824 88.5866 46.5112 88.5652C46.2628 88.5625 46.0199 88.5598 45.7886 88.5564C45.5299 88.5526 45.2766 88.5486 45.0288 88.5447H45.022ZM160.79 92.0574C160.383 92.0579 152.288 92.7242 148.29 93.0574L154.29 100.557L152.289 106.557C153.489 106.157 155.789 103.391 156.79 102.057L162.29 104.557L162.79 103.557L157.79 99.5574L160.29 96.0574C160.623 94.724 161.19 92.0574 160.79 92.0574ZM158.79 94.5574C157.956 96.0574 156.19 98.9573 155.79 98.5574C155.389 98.1565 153.289 95.7237 152.289 94.5574H158.79ZM174.289 65.7693C187.305 56.7344 197.002 65.9435 197.289 82.5564V85.0564C188.193 90.9392 181.355 91.9808 168.289 90.5564L167.289 88.0564C166.321 73.8176 170.789 68.5561 174.289 65.7693ZM75.7905 66.5564C69.1631 66.5564 63.7905 71.929 63.7905 78.5564C63.7905 85.1838 69.1631 90.5564 75.7905 90.5564C82.4178 90.5563 87.7905 85.1837 87.7905 78.5564C87.7905 71.9291 82.4178 66.5565 75.7905 66.5564ZM158.79 82.5574C155.456 82.724 148.089 82.9573 147.29 82.5574L151.79 86.0574C150.789 87.224 148.29 89.657 148.29 90.0574C148.29 90.4572 155.623 89.8907 159.29 89.5574L155.29 86.0574L158.79 82.5574ZM23.7905 62.5564C17.1631 62.5564 11.7905 67.929 11.7905 74.5564C11.7905 81.1838 17.1631 86.5564 23.7905 86.5564C30.4178 86.5563 35.7905 81.1837 35.7905 74.5564C35.7905 67.9291 30.4178 62.5565 23.7905 62.5564ZM152.79 72.5574C152.288 72.0564 148.29 68.5581 148.29 69.0574C148.29 69.4575 149.29 71.5573 149.79 72.5574C148.457 74.2234 145.892 77.5546 146.29 77.5574C146.689 77.5574 149.456 75.8908 150.79 75.0574L153.79 78.5574C154.123 77.7242 154.889 76.1584 155.29 76.5574C155.689 76.9573 158.456 78.0573 159.79 78.5574C159.789 78.1571 159.123 76.0573 158.79 75.0574C160.29 73.5573 162.99 70.6574 161.79 71.0574C160.289 71.5576 157.289 73.5574 156.79 73.5574C156.29 73.5554 155.789 70.5574 155.29 70.5574C154.789 70.559 153.289 73.0572 152.79 72.5574ZM155.79 75.0574L153.29 75.5574L152.79 74.0574H153.29L155.29 73.5574L155.79 75.0574ZM197.29 63.5574L198.79 64.5574C198.79 64.3907 198.89 64.1578 199.29 64.5574C199.69 64.9573 199.79 68.0573 199.79 69.5574L200.79 69.0574C201.247 68.4128 202.308 64.8206 203.79 65.0574L207.29 67.5574C207.266 67.52 204.796 63.5587 205.79 63.5574C206.784 63.5574 208.275 60.5873 208.29 60.5574L197.29 63.5574ZM155.79 61.5574C153.956 61.3905 150.391 60.1582 150.79 60.5574C151.19 60.9573 159.289 66.0573 163.29 68.5574C161.623 66.8909 158.491 63.5587 159.29 63.5574C160.089 63.5574 163.289 63.224 164.79 63.0574V61.5574H158.29L157.79 56.5574L155.79 61.5574ZM200.29 49.0574C197.956 51.5574 192.989 56.6574 191.79 57.0574L196.29 58.0574V61.5574L203.79 53.0574C202.456 53.7241 199.589 55.0574 198.79 55.0574C197.991 55.0557 199.456 51.057 200.29 49.0574ZM170.79 50.0574L164.29 49.5574L169.789 59.0574L171.79 58.0574L169.29 52.5574L177.29 55.0574L171.29 45.5574L170.79 50.0574ZM178.29 43.0574C178.272 43.1086 178.3 43.1708 178.362 43.2409C178.729 44.6087 180.297 52.9892 179.79 54.5574L181.79 54.0574L181.29 47.5574L183.79 46.0554L184.79 44.5574L183.79 43.0574L181.29 45.0574C180.569 44.481 178.757 43.6897 178.362 43.2409C178.324 43.0987 178.298 43.0324 178.29 43.0574ZM189.29 44.0574C187.79 47.556 184.892 54.5515 185.29 54.5574H187.79L189.29 48.0574L191.79 50.0574L189.29 44.0574ZM65.2895 13.446C78.1835 18.0521 82.7669 22.767 85.9985 36.5564L63.9985 34.5564L65.2895 13.446ZM53.2895 33.5564L35.2895 33.0564C38.834 21.642 43.1077 16.7438 55.7895 13.446L53.2895 33.5564ZM89.2895 11.5564C90.4882 15.7834 90.8791 18.2375 90.1333 23.0466L85.7895 28.6755C85.7565 28.6194 81.3175 21.0877 80.4272 20.1208C80.3636 20.1204 80.3164 20.0991 80.2895 20.0564C80.1802 19.8826 80.2435 19.9215 80.4272 20.1208C81.4799 20.125 87.2747 14.6018 89.2895 11.5564ZM34.7895 7.55638C37.3206 12.4315 38.8703 14.7318 42.2895 16.5564C39.245 18.8607 37.9702 20.3597 35.2895 25.0564C31.5262 18.0117 30.899 14.1701 34.7895 7.55638Z" fill="black"/>
</svg>
